<?xml version="1.0" encoding="utf-8"?>
<!-- Generator: Adobe Illustrator 16.0.0, SVG Export Plug-In . SVG Version: 6.00 Build 0)  -->
<!DOCTYPE svg PUBLIC "-//W3C//DTD SVG 1.0//EN" "http://www.w3.org/TR/2001/REC-SVG-20010904/DTD/svg10.dtd">
<svg version="1.0" id="Layer_1" xmlns="http://www.w3.org/2000/svg" xmlns:xlink="http://www.w3.org/1999/xlink" x="0px" y="0px"
	 width="837.659px" height="269.162px" viewBox="0 0 837.659 269.162" enable-background="new 0 0 837.659 269.162"
	 xml:space="preserve">
<g>
	<path fill="#2BA1DC" d="M191.522,71.288c-3.867-13.768-9.115-26.345-15.389-25.827c-9.963,0.827-19.688,27.853-25.632,48.204
		c-2.22,7.59-2.22,14.934-0.833,22.245c0.3,1.583,0.661,3.14,1.09,4.669c1.554,5.529,4.008,10.696,7.766,15.426
		c12.875,16.186,31.646,36.895,41.102,33.415c12.375-4.551,0.121-59.212-0.865-64.39C198.253,102.343,195.69,86.124,191.522,71.288"
		/>
	<path fill="#2BA1DC" d="M153.266,42.442c-0.312-1.113-0.89-1.974-1.771-2.537c-9.734-6.217-62.287,35.449-67.341,39.264
		c-4.904,3.709-56.816,41.106-53.956,51.285c0.084,0.3,0.215,0.575,0.396,0.826c4.847,6.707,37.144-2.483,60.921-10.395
		c8.86-2.954,16.583-7.36,23.711-12.748c7.128-5.388,13.156-11.369,17.585-18.464C143.269,72.909,155.591,50.72,153.266,42.442"/>
	<path fill="#2BA1DC" d="M179.46,180.655c-2.461-8.76-20.776-23.011-35.745-33.454c-6.652-4.637-14.369-7.575-22.885-9.499
		c-8.514-1.919-17.215-2.688-26.44-1.631c-24.735,2.833-57.774,8.125-59.791,16.355c-0.117,0.476-0.102,0.956,0.034,1.438
		c2.937,10.456,62.409,22.386,68.17,23.688c6.033,1.36,69.511,17.313,76.199,7.455C179.821,183.801,179.93,182.327,179.46,180.655"
		/>
	<path fill="#252320" d="M238.753,142.716c0-14.083,5.188-25.577,15.57-34.473c10.374-8.895,23.905-13.339,40.586-13.339
		c15.378,0,26.963,3.521,34.748,10.562V91.843c0-8.336-2.74-14.872-8.203-19.596c-5.467-4.728-13.022-7.087-22.656-7.087
		c-13.34,0-26.871,3.8-40.583,11.397l-11.677-21.128c17.236-11.118,35.675-16.681,55.32-16.681
		c38.544,0,57.819,18.347,57.819,55.041v93.681h-26.408l-2.502-10.842c-8.711,9.639-21.128,14.454-37.249,14.454
		c-15.569,0-28.587-4.489-39.057-13.481C243.99,168.614,238.753,156.985,238.753,142.716 M277.535,123.951
		c-5.654,4.728-8.478,10.704-8.478,17.929c0,7.229,2.87,13.206,8.616,17.929c5.743,4.729,13.156,7.092,22.239,7.092
		c8.896,0,16.213-2.317,21.96-6.949c5.742-4.632,8.616-10.658,8.616-18.071c0-7.596-2.828-13.665-8.478-18.209
		c-5.655-4.535-13.115-6.807-22.377-6.807C290.549,116.864,283.185,119.227,277.535,123.951"/>
	<path fill="#252320" d="M381.356,162.173l18.902-15.01c8.708,12.604,20.293,18.903,34.749,18.903
		c6.674,0,12.045-1.575,16.125-4.729c4.072-3.149,6.114-7.597,6.114-13.344c0-5.003-2.411-9.264-7.226-12.783
		c-4.823-3.521-10.704-6.533-17.653-9.034c-6.949-2.506-13.899-5.329-20.849-8.483c-6.949-3.148-12.834-7.922-17.653-14.312
		c-4.821-6.394-7.226-14.221-7.226-23.492c0-12.6,4.678-22.607,14.037-30.02c9.355-7.409,21.266-11.122,35.721-11.122
		c12.231,0,22.281,2.74,30.162,8.202c7.872,5.468,13.573,11.723,17.094,18.765l-20.849,13.899
		c-6.67-10.746-16.029-16.125-28.074-16.125c-5.746,0-10.424,1.437-14.041,4.31c-3.612,2.874-5.416,6.72-5.416,11.535
		c0,5.004,2.451,9.176,7.362,12.508c4.912,3.337,10.842,6.215,17.792,8.621c6.949,2.41,13.853,5.141,20.711,8.198
		c6.854,3.057,12.737,7.785,17.649,14.179c4.911,6.394,7.367,14.316,7.367,23.769c0,13.343-4.958,24.093-14.872,32.245
		c-9.915,8.156-22.474,12.229-37.667,12.229C409.526,191.082,392.103,181.451,381.356,162.173"/>
	<path fill="#252320" d="M522.293,169.959c-13.898-14.083-20.849-32.247-20.849-54.486s6.762-40.586,20.289-55.041
		c13.527-14.454,30.3-21.683,50.317-21.683c21.68,0,38.728,6.907,51.148,20.71c12.412,13.807,18.623,32.205,18.623,55.179
		c0,3.337-0.098,5.839-0.276,7.505H532.3c0.18,12.788,4.49,23.074,12.925,30.859c8.43,7.78,19.134,11.673,32.105,11.673
		c17.42,0,30.764-6.761,40.03-20.293l20.014,15.01c-4.632,7.973-12.049,15.248-22.235,21.822
		c-10.194,6.578-22.982,9.869-38.364,9.869C554.351,191.083,536.192,184.041,522.293,169.959 M533.411,101.293h77.556
		c-0.556-11.673-4.449-20.798-11.673-27.38c-7.229-6.574-16.222-9.869-26.968-9.869c-10.562,0-19.457,3.387-26.684,10.148
		C538.414,80.959,534.334,89.993,533.411,101.293"/>
	<path fill="#252320" d="M678.516,169.959c-13.899-14.083-20.849-32.247-20.849-54.486s6.762-40.586,20.293-55.041
		c13.523-14.454,30.3-21.683,50.313-21.683c21.684,0,38.731,6.907,51.148,20.71c12.416,13.807,18.627,32.205,18.627,55.179
		c0,3.337-0.097,5.839-0.28,7.505H688.522c0.184,12.788,4.494,23.074,12.925,30.859c8.434,7.78,19.133,11.673,32.109,11.673
		c17.415,0,30.759-6.761,40.03-20.293l20.014,15.01c-4.636,7.973-12.049,15.248-22.239,21.822
		c-10.194,6.578-22.982,9.869-38.36,9.869C710.574,191.083,692.415,184.041,678.516,169.959 M689.634,101.293h77.56
		c-0.556-11.673-4.448-20.798-11.678-27.38c-7.225-6.574-16.217-9.869-26.963-9.869c-10.562,0-19.457,3.387-26.687,10.148
		C694.641,80.959,690.561,89.993,689.634,101.293"/>
	<path fill="#252320" d="M423.19,221.034c2.809,0.408,5.397,1.721,5.688,4.77c0.645,4.062,0.101,9.436-5.044,9.736
		c-6.81,0.382-13.661,0.08-20.482,0.15c-2.899,0.126-2.888-4.67,0.131-4.373c5.494-0.01,10.987-0.004,16.48-0.004
		c3.141,0.406,6.226-1.143,4.456-4.671c-0.55-0.982-1.763-1.25-2.831-1.194c-7.334-0.008-14.669-0.016-22.004-0.003
		c-2.098,0.047-2.815,0.658-2.853,2.748c-0.064,3.511-0.064,7.024-0.008,10.534c0.035,2.182,0.816,2.84,3.156,2.842
		c8.94,0.01,17.878,0.003,26.817,0.006c1.452,0.001,2.199,0.521,2.46,1.675c0.439,1.763-1.041,2.938-2.721,2.744
		c-9.806-0.218-19.696,0.465-29.463-0.31c-4.11-0.625-4.75-4.704-4.64-8.205c-0.029-2.95-0.024-5.901-0.001-8.853
		c-0.205-4.127,1.52-7.206,5.907-7.593H423.19z"/>
	<path fill="#252320" d="M312.148,221.034c3.595,0.548,6.421,3.056,6.38,7.067c0.044,5.135,0.023,10.271,0.012,15.407
		c-0.003,1.552-0.76,2.351-2.149,2.359c-1.371,0.009-2.259-0.901-2.263-2.395c-0.012-4.87-0.003-9.74-0.005-14.61
		c-0.001-2.211-1.242-3.473-3.45-3.475c-7.039-0.009-14.078-0.008-21.118,0c-2.218,0.001-3.466,1.251-3.469,3.45
		c-0.003,3.188-0.013,6.376,0.005,9.563c0.01,1.745,1.334,3.114,3.085,3.123c5.375-0.035,10.745,0.126,16.113-0.063
		c0.178-2.005-0.874-5.796,2.236-5.753c1.211,0.013,2.1,0.811,2.129,2.032c-0.149,3.018,1.253,8.073-3.312,8.204
		c-6.084-0.049-12.186,0.14-18.261-0.094c-8.985-0.88-5.971-11.72-6.383-17.957c0.029-3.79,2.615-6.104,6.21-6.86H312.148z"/>
	<path fill="#252320" d="M509.813,240.34c-0.523,4.088-3.625,5.849-7.543,5.646c-8.178-0.174-16.429,0.412-24.572-0.267
		c-7.252-1.415-4.118-11.714-4.749-17.071c-0.176-4.137,1.625-7.282,6.029-7.614h24.774c3.446,0.284,5.575,2.284,6.061,5.668V240.34
		z M491.456,241.573v0.017c16.276-0.37,13.873,3.233,13.914-13.525c0.115-2.134-1.488-2.681-3.377-2.595
		c-7.093-0.001-14.186-0.002-21.278,0.002c-1.629-0.049-3.458,0.373-3.327,2.353C477.446,244.744,474.915,241.204,491.456,241.573"
		/>
	<path fill="#252320" d="M466.323,221.034c2.502,0.831,2.09,4.585-0.848,4.401c-8.597,0.157-17.237-0.289-25.813,0.179
		c-1.444,0.201-1.638,1.743-1.651,2.946c-0.012,3.304-0.012,6.608,0,9.913c-0.099,2.529,1.222,3.165,3.541,3.093
		c8.018,0.011,16.034,0.004,24.051,0.011c1.688,0.002,2.51,0.878,2.366,2.468c-0.104,1.162-0.809,1.923-2.033,1.926
		c-8.64,0.019-17.279,0.002-25.92-0.017c-3.498-0.11-6.274-2.077-6.272-5.929c-0.126-4.215-0.163-8.438-0.05-12.654
		c0.042-4.107,2.032-5.579,5.895-6.337H466.323z"/>
	<path fill="#252320" d="M386.295,221.034c2.377,0.666,2.066,4.651-0.635,4.429c-3.41,0.053-6.833-0.071-10.239,0.052
		c-1.457,0.194-2.125,0.867-2.144,2.335c-0.787,5.713,2.726,16.94-5.436,17.979c-4.786,0.374-9.616,0.08-14.418,0.159
		c-1.785-0.008-2.752-1.306-2.26-2.954c0.295-0.986,0.996-1.454,2.261-1.456c3.859-0.008,7.718-0.003,11.577-0.004
		c3.072,0,3.719-0.642,3.731-3.668c0.013-3.54-0.057-7.083,0.083-10.617c0.087-4.028,2.073-5.497,5.895-6.254H386.295z"/>
	<path fill="#252320" d="M358.313,221.034c0.826,0.361,1.436,0.886,1.562,1.851c0.2,1.511-0.648,2.563-2.18,2.575
		c-3.326,0.037-6.654-0.021-9.98,0.024c-1.712,0.098-2.403,0.756-2.537,2.451c-0.188,4.296,0.22,8.634-0.213,12.913
		c-0.433,3.491-3.299,5.109-6.612,5.122c-4.366,0.02-8.732,0.03-13.098,0.014c-2.943,0.196-2.987-4.599-0.016-4.408
		c3.979-0.007,7.96,0.001,11.939-0.004c1.764,0.133,3.575-0.497,3.49-2.538c0.167-4.381-0.272-8.821,0.296-13.173
		c0.533-3.138,2.771-4.417,5.763-4.827H358.313z"/>
	<path fill="#2BA1DC" d="M239.019,246.764v-21.719h3.275v8.14c0.339-0.54,0.944-1.091,1.817-1.652
		c0.872-0.561,1.957-0.841,3.26-0.841c2.223,0,4.019,0.768,5.392,2.299c1.37,1.531,2.057,3.519,2.057,5.962
		c0,2.404-0.716,4.371-2.148,5.903c-1.431,1.532-3.269,2.299-5.513,2.299c-2.101,0-3.784-0.812-5.046-2.435v2.044H239.019z
		 M242.174,238.982c0,1.483,0.424,2.734,1.276,3.756c0.851,1.021,1.979,1.531,3.38,1.531c1.361,0,2.484-0.485,3.364-1.456
		c0.881-0.972,1.322-2.249,1.322-3.831s-0.436-2.873-1.308-3.875c-0.869-1.001-1.986-1.501-3.348-1.501
		c-1.363,0-2.484,0.48-3.366,1.441C242.614,236.009,242.174,237.321,242.174,238.982"/>
	<polygon fill="#2BA1DC" points="263.021,252.14 259.867,252.14 262.088,246.494 255.873,231.082 259.386,231.082 263.622,242.498 
		267.796,231.082 271.221,231.082 	"/>
</g>
</svg>
