<?xml version="1.0" encoding="utf-8"?>
<!-- Generator: Adobe Illustrator 16.0.0, SVG Export Plug-In . SVG Version: 6.00 Build 0)  -->
<!DOCTYPE svg PUBLIC "-//W3C//DTD SVG 1.1//EN" "http://www.w3.org/Graphics/SVG/1.1/DTD/svg11.dtd">
<svg version="1.1" id="Layer_1" xmlns="http://www.w3.org/2000/svg" xmlns:xlink="http://www.w3.org/1999/xlink" x="0px" y="0px"
	 width="292px" height="57px" viewBox="0 0 292 57" enable-background="new 0 0 292 57" xml:space="preserve">
<g>
	<path fill-rule="evenodd" clip-rule="evenodd" fill="#FFDD00" d="M28.547,45.652c-10.67-1.019-20.11-6.138-23.608-12.046
		c0.182,1.109,1.444,3.526,2.022,5.122c0.424,1.169,1.033,2.116,1.316,2.974c4.418,3.125,9.486,4.762,16.455,5.425
		c7.182,0.684,13.496-0.192,18.479-2.572C38.843,45.667,34.025,46.174,28.547,45.652"/>
	<path fill-rule="evenodd" clip-rule="evenodd" fill="#FFDD00" d="M20.234,24.174c-3.672-3.99-6.969-8.024-9.826-11.959
		c-0.385,0.505-0.818,1.093-1.271,1.763c-0.628,0.917-1.133,1.776-1.517,2.494c2.811,3.079,5.923,6.187,9.298,9.235
		c9.613,8.693,18.98,14.339,26.463,18.404C36.635,39.149,28.455,33.104,20.234,24.174"/>
	<path fill-rule="evenodd" clip-rule="evenodd" fill="#FFDD00" d="M35.41,17.122c-2.744-5.467-4.893-9.082-8.057-13.325
		c-0.41,0.042-1.099,0.386-2.312,0.577c-0.914,0.144-1.835,0.051-2.572,0.345c4.613,4.84,8.332,9.907,12.427,17.197
		c4.655,8.291,6.995,14.899,8.955,21.813C43.018,35.768,40.586,27.427,35.41,17.122"/>
	<path fill-rule="evenodd" clip-rule="evenodd" fill="#0066B2" d="M30.921,54.105c-13.344,0-24.159-10.461-24.159-23.362
		c0-12.904,10.75-22.99,24.095-22.99c13.082,0,23.801,9.683,24.213,22.238c0.01-0.322,0.02-0.646,0.02-0.976
		c0-14.078-11.483-25.489-25.648-25.489c-14.165,0-25.648,11.412-25.648,25.489s11.483,25.49,25.648,25.49
		c2.76,0,5.42-0.436,7.912-1.237C35.305,53.812,33.149,54.105,30.921,54.105"/>
	<path fill-rule="evenodd" clip-rule="evenodd" fill="#A2238D" d="M17.1,18.234c9.148-9.325,23.369-10.029,31.775-1.576
		c5.131,5.161,7.169,12.947,5.416,19.623c2.379-7.941,0.922-16.952-5.113-23.02C40.336,4.372,25.432,4.93,16.286,14.25
		c-6.022,6.142-8.186,14.638-6.437,22.263C9.597,30.111,12.041,23.393,17.1,18.234"/>
	<path fill-rule="evenodd" clip-rule="evenodd" fill="#009074" d="M53.832,31.319c-0.072-5.608-2.219-10.798-6.164-13.509
		c-7.625-5.248-19.471-1.147-26.856,9.641c-3.823,5.583-5.608,11.756-5.39,17.141c-1.693-6.315-0.299-14.139,4.343-20.918
		c7.388-10.786,20.188-14.838,28.597-9.054c4.979,3.426,7.4,9.583,6.928,16.238c0,0-0.148,1.92-0.329,2.756
		c-0.17,0.795-0.612,2.518-0.786,3.025C53.998,37.145,53.832,31.319,53.832,31.319"/>
	<path fill-rule="evenodd" clip-rule="evenodd" fill="#F26F21" d="M28.49,28.061c-7.533,7.985-9.236,18.609-3.807,23.728
		c0.24,0.229,0.492,0.44,0.753,0.637c-4.779-4.78-3.343-13.934,3.269-21.08c6.077-6.564,16.418-9.439,21.422-4.715
		c4.411,4.161,3.824,12.147-1.015,18.898c6.702-7.842,8.029-17.762,2.839-22.655C46.523,17.756,36.019,20.078,28.49,28.061"/>
	<path fill-rule="evenodd" clip-rule="evenodd" fill="#DA2128" d="M35.572,36.167c-5.067,4.402-6.766,10.751-3.785,14.182
		c2.334,2.687,6.841,2.782,11.125,0.58c-3.6,1.658-7.316,1.453-9.292-0.822c-2.644-3.045-1.196-8.625,3.228-12.47
		c4.428-3.848,10.158-4.497,12.798-1.455c1.979,2.278,1.665,5.983-0.481,9.315c2.778-3.928,3.315-8.408,0.98-11.094
		C47.166,30.974,40.643,31.763,35.572,36.167"/>
	<path fill-rule="evenodd" clip-rule="evenodd" fill="#DA2128" d="M92.385,23.624h-3.198l-1.875,8.824h3.31
		c2.021,0,3.125-0.44,3.933-1.289c1.101-1.137,1.766-2.754,1.766-4.298C96.319,24.763,95.18,23.624,92.385,23.624 M96.65,34.173
		c-2.135,1.324-3.934,1.73-6.618,1.73h-3.458L84.52,45.57h-4.266l5.439-25.404h6.618c3.125,0,4.999,0.479,6.25,1.325
		c1.507,1.029,2.317,2.682,2.317,4.521C100.879,29.799,99.149,32.594,96.65,34.173"/>
	<path fill-rule="evenodd" clip-rule="evenodd" fill="#DA2128" d="M111.277,32.782c-0.314-0.188-0.633-0.252-1.104-0.252
		c-1.102,0-2.332,0.851-3.717,2.807l-2.174,10.233h-3.432l2.267-10.646c0.474-2.174,0.44-3.37,0.126-4.475l3.213-1.323
		c0.346,0.82,0.473,2.016,0.252,3.12c1.447-1.828,3.215-2.993,4.756-2.993c0.566,0,0.852,0.063,1.324,0.252L111.277,32.782z"/>
	<path fill-rule="evenodd" clip-rule="evenodd" fill="#DA2128" d="M120.064,31.901c-3.15,0-4.789,5.039-4.789,8.66
		c0,1.924,0.913,2.775,2.461,2.775c3.085,0,4.753-4.729,4.753-8.604C122.489,32.594,121.482,31.901,120.064,31.901 M117.105,45.95
		c-3.53,0-5.546-2.049-5.546-5.703c0-6.141,3.749-10.993,9.043-10.993c3.652,0,5.637,2.111,5.637,5.606
		C126.238,40.688,122.962,45.95,117.105,45.95"/>
	<path fill-rule="evenodd" clip-rule="evenodd" fill="#DA2128" d="M147.151,24.507c-1.139-1.029-2.499-1.436-4.12-1.436
		c-2.242,0-4.299,1.213-5.807,3.163c-2.096,2.684-3.307,7.793-3.307,10.88c0,3.641,1.836,5.552,5.144,5.552
		c1.692,0,3.125-0.553,4.964-1.729l1.507,2.794c-2.352,1.545-4.854,2.282-7.61,2.282c-5.405,0-8.602-3.42-8.602-9.044
		c0-4.08,1.54-8.971,4.153-12.207c2.607-3.271,6.433-5.034,10.183-5.034c2.464,0,4.671,0.769,5.921,2.02L147.151,24.507z"/>
	<path fill-rule="evenodd" clip-rule="evenodd" fill="#DA2128" d="M158.581,32.782c-0.316-0.188-0.631-0.252-1.105-0.252
		c-1.104,0-2.33,0.851-3.715,2.807l-2.174,10.233h-3.434l2.27-10.646c0.471-2.174,0.439-3.37,0.121-4.475l3.217-1.323
		c0.345,0.82,0.473,2.016,0.252,3.12c1.447-1.828,3.213-2.993,4.756-2.993c0.57,0,0.852,0.063,1.324,0.252L158.581,32.782z"/>
	<path fill-rule="evenodd" clip-rule="evenodd" fill="#DA2128" d="M167.428,31.836c-1.793,0-3.369,1.419-4.063,4.411
		c0.188,0,0.852,0.094,1.389,0.094c1.92,0,3.24-0.283,4.002-1.037c0.404-0.411,0.656-0.916,0.656-1.576
		C169.413,32.655,168.879,31.836,167.428,31.836 M171.493,36.813c-1.322,1.291-3.498,2.017-6.771,2.017
		c-0.883,0-1.641-0.124-1.922-0.124c-0.064,0.314-0.188,1.165-0.188,1.668c0,1.984,1.161,2.93,2.898,2.93
		c1.668,0,3.023-0.569,4.502-1.732l1.072,2.141c-1.924,1.545-3.814,2.268-6.488,2.268c-3.402,0-5.67-2.046-5.67-5.826
		c0-3.182,1.385-6.613,3.559-8.725c1.574-1.512,3.34-2.173,5.385-2.173c3.088,0,5.041,1.417,5.041,4.251
		C172.911,34.799,172.405,35.933,171.493,36.813"/>
	<path fill-rule="evenodd" clip-rule="evenodd" fill="#DA2128" d="M183.622,32.183c-1.008,0-2.145,0.506-2.898,1.451
		c-1.291,1.573-2.172,4.66-2.172,6.834c0,1.732,0.627,2.646,1.92,2.646c1.32,0,3.052-1.164,4.033-2.834l1.604-7.466
		C185.446,32.374,184.786,32.183,183.622,32.183 M188.03,40.027c-0.725,3.371-0.6,4.378-0.154,5.133l-2.967,0.695
		c-0.404-0.505-0.656-1.292-0.596-2.301c-1.229,1.513-2.865,2.331-4.693,2.331c-3.182,0-4.693-1.891-4.693-5.479
		c0-3.183,1.26-6.585,3.498-8.79c1.511-1.479,3.494-2.237,5.322-2.237c1.418,0,2.52,0.222,3.053,0.505
		c0-0.157,0.287-1.604,0.412-2.14l1.133-5.355l3.309,0.566L188.03,40.027z"/>
	<path fill-rule="evenodd" clip-rule="evenodd" fill="#DA2128" d="M198.047,27.333c-1.258,0-2.299-1.038-2.299-2.298
		c0-1.292,1.041-2.331,2.328-2.331c1.26,0,2.27,1.039,2.27,2.298C200.346,26.295,199.336,27.333,198.047,27.333 M195.432,45.57
		h-3.525l3.336-15.751l3.625-0.533L195.432,45.57z"/>
	<path fill-rule="evenodd" clip-rule="evenodd" fill="#DA2128" d="M209.512,32.089h-3.057l-1.793,8.567
		c-0.127,0.599-0.191,1.136-0.191,1.547c0,1.005,0.473,1.321,1.48,1.321c0.504,0,1.104-0.096,1.607-0.316v2.143
		c-1.104,0.44-2.204,0.66-3.309,0.66c-2.139,0-3.338-1.07-3.338-2.674c0-0.57,0.064-1.387,0.217-2.176l1.924-9.072h-1.795
		l0.502-2.458h1.799c0.313-1.447,0.63-2.676,1.041-3.874l3.682-0.851c-0.439,1.354-0.973,3.212-1.287,4.724h3.807L209.512,32.089z"
		/>
	<path fill-rule="evenodd" clip-rule="evenodd" fill="#DA2128" d="M230.528,23.733h-3.529l-1.437,6.912h3.677
		c1.582,0,2.537-0.295,3.273-0.882c0.92-0.737,1.58-1.841,1.58-3.235C234.092,24.689,233.211,23.733,230.528,23.733 M228.579,34.139
		h-3.75l-1.691,7.976h4.043c1.505,0,2.611-0.404,3.455-0.991c1.104-0.772,1.951-2.352,1.951-3.935
		C232.586,35.166,231.594,34.139,228.579,34.139 M233.172,32.116c2.684,0.514,4.045,2.571,4.045,5.109
		c0,1.875-0.92,4.191-2.756,5.92c-1.914,1.765-3.934,2.425-8.162,2.425h-8.088l5.439-25.404h7.943c4.814,0,7.129,2.096,7.129,5.518
		C238.723,28.439,236.995,31.05,233.172,32.116"/>
	<path fill-rule="evenodd" clip-rule="evenodd" fill="#DA2128" d="M249.125,31.995c-1.42,0-2.428,0.314-3.654,1.764
		c-1.418,1.702-2.082,4.788-2.082,7.025c0,1.733,0.57,2.393,1.736,2.393c1.447,0,3.057-1.449,3.777-3.056l1.699-7.812
		C250.29,32.121,249.661,31.995,249.125,31.995 M253.532,34.106l-1.287,6.3c-0.412,1.921-0.225,2.739,0.565,3.589l-2.835,2.113
		c-0.85-0.697-1.195-1.577-1.195-2.616c-1.137,1.544-2.744,2.458-4.789,2.458c-2.488,0-4.158-1.672-4.158-5.074
		c0-3.525,1.322-6.928,3.369-9.039c1.701-1.732,3.781-2.584,6.334-2.584c1.824,0,3.684,0.38,4.942,1.199
		C254.196,31.335,253.756,32.973,253.532,34.106"/>
	<path fill-rule="evenodd" clip-rule="evenodd" fill="#DA2128" d="M270.575,34.169l-2.427,11.401h-3.433l2.238-10.552
		c0.158-0.691,0.219-1.197,0.219-1.543c0-0.914-0.41-1.26-1.258-1.26c-1.137,0-2.711,0.789-4.379,2.959l-2.207,10.396h-3.4
		l2.332-11.024c0.375-1.857,0.408-2.93,0.061-4.096l3.215-1.321c0.314,0.724,0.502,1.891,0.281,2.992
		c1.514-1.828,3.527-2.836,5.734-2.836c1.982,0,3.18,1.228,3.18,3.15C270.731,32.973,270.7,33.634,270.575,34.169"/>
	<path fill-rule="evenodd" clip-rule="evenodd" fill="#DA2128" d="M282.008,36.563l4.789,8.789l-3.877,0.438l-4.441-9.323
		l6.585-7.118l3.718,0.628L282.008,36.563z M280.211,27.899l-3.777,17.671h-3.465l3.746-17.606c0.443-2.017,0.504-3.591,0.256-4.569
		l3.588-1.198C280.842,23.082,280.81,25.096,280.211,27.899"/>
	<path fill-rule="evenodd" clip-rule="evenodd" fill="#DA2128" d="M92.385,23.624h-3.198l-1.875,8.824h3.31
		c2.021,0,3.125-0.44,3.933-1.289c1.101-1.137,1.766-2.754,1.766-4.298C96.319,24.763,95.18,23.624,92.385,23.624 M96.65,34.173
		c-2.135,1.324-3.934,1.73-6.618,1.73h-3.458L84.52,45.57h-4.266l5.439-25.404h6.618c3.125,0,4.999,0.479,6.25,1.325
		c1.507,1.029,2.317,2.682,2.317,4.521C100.879,29.799,99.149,32.594,96.65,34.173"/>
	<path fill-rule="evenodd" clip-rule="evenodd" fill="#DA2128" d="M111.277,32.782c-0.314-0.188-0.633-0.252-1.104-0.252
		c-1.102,0-2.332,0.851-3.717,2.807l-2.174,10.233h-3.432l2.267-10.646c0.474-2.174,0.44-3.37,0.126-4.475l3.213-1.323
		c0.346,0.82,0.473,2.016,0.252,3.12c1.447-1.828,3.215-2.993,4.756-2.993c0.566,0,0.852,0.063,1.324,0.252L111.277,32.782z"/>
	<path fill-rule="evenodd" clip-rule="evenodd" fill="#DA2128" d="M120.064,31.901c-3.15,0-4.789,5.039-4.789,8.66
		c0,1.924,0.913,2.775,2.461,2.775c3.085,0,4.753-4.729,4.753-8.604C122.489,32.594,121.482,31.901,120.064,31.901 M117.105,45.95
		c-3.53,0-5.546-2.049-5.546-5.703c0-6.141,3.749-10.993,9.043-10.993c3.652,0,5.637,2.111,5.637,5.606
		C126.238,40.688,122.962,45.95,117.105,45.95"/>
	<path fill-rule="evenodd" clip-rule="evenodd" fill="#DA2128" d="M147.151,24.507c-1.139-1.029-2.499-1.436-4.12-1.436
		c-2.242,0-4.299,1.213-5.807,3.163c-2.096,2.684-3.307,7.793-3.307,10.88c0,3.641,1.836,5.552,5.144,5.552
		c1.692,0,3.125-0.553,4.964-1.729l1.507,2.794c-2.352,1.545-4.854,2.282-7.61,2.282c-5.405,0-8.602-3.42-8.602-9.044
		c0-4.08,1.54-8.971,4.153-12.207c2.607-3.271,6.433-5.034,10.183-5.034c2.464,0,4.671,0.769,5.921,2.02L147.151,24.507z"/>
	<path fill-rule="evenodd" clip-rule="evenodd" fill="#DA2128" d="M158.581,32.782c-0.316-0.188-0.631-0.252-1.105-0.252
		c-1.104,0-2.33,0.851-3.715,2.807l-2.174,10.233h-3.434l2.27-10.646c0.471-2.174,0.439-3.37,0.121-4.475l3.217-1.323
		c0.345,0.82,0.473,2.016,0.252,3.12c1.447-1.828,3.213-2.993,4.756-2.993c0.57,0,0.852,0.063,1.324,0.252L158.581,32.782z"/>
	<path fill-rule="evenodd" clip-rule="evenodd" fill="#DA2128" d="M167.428,31.836c-1.793,0-3.369,1.419-4.063,4.411
		c0.188,0,0.852,0.094,1.389,0.094c1.92,0,3.24-0.283,4.002-1.037c0.404-0.411,0.656-0.916,0.656-1.576
		C169.413,32.655,168.879,31.836,167.428,31.836 M171.493,36.813c-1.322,1.291-3.498,2.017-6.771,2.017
		c-0.883,0-1.641-0.124-1.922-0.124c-0.064,0.314-0.188,1.165-0.188,1.668c0,1.984,1.161,2.93,2.898,2.93
		c1.668,0,3.023-0.569,4.502-1.732l1.072,2.141c-1.924,1.545-3.814,2.268-6.488,2.268c-3.402,0-5.67-2.046-5.67-5.826
		c0-3.182,1.385-6.613,3.559-8.725c1.574-1.512,3.34-2.173,5.385-2.173c3.088,0,5.041,1.417,5.041,4.251
		C172.911,34.799,172.405,35.933,171.493,36.813"/>
	<path fill-rule="evenodd" clip-rule="evenodd" fill="#DA2128" d="M183.622,32.183c-1.008,0-2.145,0.506-2.898,1.451
		c-1.291,1.573-2.172,4.66-2.172,6.834c0,1.732,0.627,2.646,1.92,2.646c1.32,0,3.052-1.164,4.033-2.834l1.604-7.466
		C185.446,32.374,184.786,32.183,183.622,32.183 M188.03,40.027c-0.725,3.371-0.6,4.378-0.154,5.133l-2.967,0.695
		c-0.404-0.505-0.656-1.292-0.596-2.301c-1.229,1.513-2.865,2.331-4.693,2.331c-3.182,0-4.693-1.891-4.693-5.479
		c0-3.183,1.26-6.585,3.498-8.79c1.511-1.479,3.494-2.237,5.322-2.237c1.418,0,2.52,0.222,3.053,0.505
		c0-0.157,0.287-1.604,0.412-2.14l1.133-5.355l3.309,0.566L188.03,40.027z"/>
	<path fill-rule="evenodd" clip-rule="evenodd" fill="#DA2128" d="M198.047,27.333c-1.258,0-2.299-1.038-2.299-2.298
		c0-1.292,1.041-2.331,2.328-2.331c1.26,0,2.27,1.039,2.27,2.298C200.346,26.295,199.336,27.333,198.047,27.333 M195.432,45.57
		h-3.525l3.336-15.751l3.625-0.533L195.432,45.57z"/>
	<path fill-rule="evenodd" clip-rule="evenodd" fill="#DA2128" d="M209.512,32.089h-3.057l-1.793,8.567
		c-0.127,0.599-0.191,1.136-0.191,1.547c0,1.005,0.473,1.321,1.48,1.321c0.504,0,1.104-0.096,1.607-0.316v2.143
		c-1.104,0.44-2.204,0.66-3.309,0.66c-2.139,0-3.338-1.07-3.338-2.674c0-0.57,0.064-1.387,0.217-2.176l1.924-9.072h-1.795
		l0.502-2.458h1.799c0.313-1.447,0.63-2.676,1.041-3.874l3.682-0.851c-0.439,1.354-0.973,3.212-1.287,4.724h3.807L209.512,32.089z"
		/>
	<path fill-rule="evenodd" clip-rule="evenodd" fill="#DA2128" d="M230.528,23.733h-3.529l-1.437,6.912h3.677
		c1.582,0,2.537-0.295,3.273-0.882c0.92-0.737,1.58-1.841,1.58-3.235C234.092,24.689,233.211,23.733,230.528,23.733 M228.579,34.139
		h-3.75l-1.691,7.976h4.043c1.505,0,2.611-0.404,3.455-0.991c1.104-0.772,1.951-2.352,1.951-3.935
		C232.586,35.166,231.594,34.139,228.579,34.139 M233.172,32.116c2.684,0.514,4.045,2.571,4.045,5.109
		c0,1.875-0.92,4.191-2.756,5.92c-1.914,1.765-3.934,2.425-8.162,2.425h-8.088l5.439-25.404h7.943c4.814,0,7.129,2.096,7.129,5.518
		C238.723,28.439,236.995,31.05,233.172,32.116"/>
	<path fill-rule="evenodd" clip-rule="evenodd" fill="#DA2128" d="M249.125,31.995c-1.42,0-2.428,0.314-3.654,1.764
		c-1.418,1.702-2.082,4.788-2.082,7.025c0,1.733,0.57,2.393,1.736,2.393c1.447,0,3.057-1.449,3.777-3.056l1.699-7.812
		C250.29,32.121,249.661,31.995,249.125,31.995 M253.532,34.106l-1.287,6.3c-0.412,1.921-0.225,2.739,0.565,3.589l-2.835,2.113
		c-0.85-0.697-1.195-1.577-1.195-2.616c-1.137,1.544-2.744,2.458-4.789,2.458c-2.488,0-4.158-1.672-4.158-5.074
		c0-3.525,1.322-6.928,3.369-9.039c1.701-1.732,3.781-2.584,6.334-2.584c1.824,0,3.684,0.38,4.942,1.199
		C254.196,31.335,253.756,32.973,253.532,34.106"/>
	<path fill-rule="evenodd" clip-rule="evenodd" fill="#DA2128" d="M270.575,34.169l-2.427,11.401h-3.433l2.238-10.552
		c0.158-0.691,0.219-1.197,0.219-1.543c0-0.914-0.41-1.26-1.258-1.26c-1.137,0-2.711,0.789-4.379,2.959l-2.207,10.396h-3.4
		l2.332-11.024c0.375-1.857,0.408-2.93,0.061-4.096l3.215-1.321c0.314,0.724,0.502,1.891,0.281,2.992
		c1.514-1.828,3.527-2.836,5.734-2.836c1.982,0,3.18,1.228,3.18,3.15C270.731,32.973,270.7,33.634,270.575,34.169"/>
	<path fill-rule="evenodd" clip-rule="evenodd" fill="#DA2128" d="M282.008,36.563l4.789,8.789l-3.877,0.438l-4.441-9.323
		l6.585-7.118l3.718,0.628L282.008,36.563z M280.211,27.899l-3.777,17.671h-3.465l3.746-17.606c0.443-2.017,0.504-3.591,0.256-4.569
		l3.588-1.198C280.842,23.082,280.81,25.096,280.211,27.899"/>
</g>
</svg>
