<svg width="114" height="38" viewBox="0 0 114 38" fill="none" xmlns="http://www.w3.org/2000/svg">
<path fill-rule="evenodd" clip-rule="evenodd" d="M5.20704 16.8704C5.95238 21.9947 10.3382 25.9274 15.6315 25.9274C17.8192 25.9274 19.8447 25.2465 21.5321 24.1L25.6453 27.9216L15.6349 38L4.57902 26.8689C4.25466 26.5423 3.94755 26.2019 3.65425 25.851L3.61698 25.8068L3.61695 25.8068L3.61692 25.8067L3.61687 25.8067L3.61682 25.8066L3.61677 25.8065L3.61672 25.8065C3.55436 25.7327 3.49441 25.6617 3.43685 25.5835C3.38855 25.5244 3.34024 25.4654 3.29538 25.4063L3.27296 25.3773C3.23137 25.3236 3.18843 25.2682 3.15045 25.2152C2.75708 24.6906 2.39476 24.1417 2.07039 23.572C1.21808 22.0781 0.600414 20.4209 0.272602 18.6665C0.0931678 17.7215 0 16.7418 0 15.7413C0 13.9556 0.296757 12.2393 0.83851 10.6413C2.39821 6.04845 6.00759 2.41452 10.5659 0.844213C12.1567 0.298775 13.8578 0 15.6315 0C17.4051 0 19.1097 0.298775 20.6936 0.840739C22.2947 1.39312 23.7681 2.20954 25.0863 3.22052L21.5356 6.52094C19.8516 5.371 17.8192 4.70049 15.6315 4.70049C9.81367 4.70049 5.09317 9.4531 5.09317 15.314C5.09317 15.8455 5.13113 16.3631 5.20704 16.8704ZM46.0953 27.5461C46.0953 29.7209 47.2823 30.7874 49.018 30.7874C49.8876 30.7874 50.8917 30.5095 51.7095 30.0926L53.2623 34.9077C51.6647 35.5574 50.3396 35.8353 48.6488 35.8805C43.7627 36.0646 40.5673 33.2402 40.5673 27.5461V17.683H36.3437V12.7706H40.733V3.93589H46.2575V12.7741H52.4342V17.683H46.0953V27.5461ZM9.83392 15.3138C9.83392 18.5448 12.4357 21.1608 15.6414 21.1608C18.8505 21.1608 21.4488 18.5413 21.4488 15.3138C21.4488 12.0829 18.847 9.46689 15.6414 9.46689C12.4357 9.46341 9.83392 12.0829 9.83392 15.3138ZM24.8028 9.93938L28.426 6.57295C29.2576 7.76805 29.9512 9.07085 30.4239 10.4779C30.9657 12.076 31.2624 13.7922 31.2624 15.5779C31.2624 16.575 31.1693 17.5581 30.9898 18.5031C30.662 20.2575 30.0478 21.9112 29.192 23.4086C29.1131 23.546 29.0236 23.6768 28.9342 23.8076C28.879 23.8883 28.8238 23.9691 28.7711 24.0513L24.8063 20.3687C25.4308 19.257 25.8622 18.0237 26.0554 16.7105C26.1313 16.2032 26.1693 15.6821 26.1693 15.154C26.1693 13.2572 25.6689 11.4784 24.8028 9.93938ZM96.6579 21.2823C97.4688 18.3536 99.898 16.891 102.869 16.891C106.02 16.891 108.273 18.3536 108.632 21.2823H96.6579ZM102.69 11.9126C95.4847 11.9126 90.8918 16.8528 90.8918 23.7142C90.8918 30.9404 95.4398 35.7451 103.093 35.7451C106.472 35.7451 110.298 34.557 112.638 32.0869L109.125 28.5641C107.866 29.8912 105.209 30.6694 103.183 30.6694C99.3114 30.6694 96.9236 28.6579 96.5647 25.8682H113.897C114.757 16.5784 110.119 11.9126 102.69 11.9126ZM78.2671 28.0674L84.8406 12.7847H90.9275L81.314 35.3526H75.2684L65.6066 12.7847H71.697L78.2671 28.0674ZM62.6887 12.7882H57.1504V35.5055H62.6887V12.7882ZM56.61 6.69813C56.61 4.83947 58.1076 3.3317 59.9537 3.3317C61.7998 3.3317 63.2973 4.83947 63.2973 6.69813C63.2973 8.55679 61.7998 10.0646 59.9537 10.0646C58.1076 10.0646 56.61 8.55679 56.61 6.69813Z" fill="url(#paint0_linear_3019_1363)"/>
<defs>
<linearGradient id="paint0_linear_3019_1363" x1="113.87" y1="17.3707" x2="7.4442" y2="45.5176" gradientUnits="userSpaceOnUse">
<stop stop-color="#4285F5"/>
<stop offset="1" stop-color="#2257C5"/>
</linearGradient>
</defs>
</svg>
